<!DOCTYPE svg PUBLIC "-//W3C//DTD SVG 1.1//EN" "http://www.w3.org/Graphics/SVG/1.1/DTD/svg11.dtd">
<svg version="1.1" xmlns="http://www.w3.org/2000/svg" width="256" height="256">
  <path
     stroke-width="5" stroke="{{ color_secondary }}" fill="{{ color_primary }}"
     id="path10"
     d="m 187.08782,127.62793 c 0,0 0,0 0,0 C 151.63513,90.351101 131.93919,69.641756 128,65.499886 c 0,0 0,0 0,0 -35.45269,37.276824 -55.148628,57.986184 -59.087818,62.128044 0,0 0,0 0,0 35.452688,37.27682 55.148628,57.98618 59.087818,62.12804 0,0 0,0 0,0 35.45267,-37.27682 55.14863,-57.98616 59.08782,-62.12804 z" />
  <path
     stroke-width="5" stroke="{{ stroke_color }}" fill="none"
     id="path8"
     d="m 163.71034,144.68686 c 0,0 0.33797,-15.57755 -11.97912,-16.34009 -12.37608,-0.7675 -13.11641,8.49189 -13.11641,8.49189 0,0 -0.38623,7.87295 -10.27854,7.87295 -9.8923,0 -10.60578,-7.80363 -10.60578,-7.80363 0,0 -2.4677,-8.86326 -13.84062,-8.54638 -12.510211,0.34167 -12.601408,16.42429 -12.601408,16.42429" />
  <path
     stroke-width="5" stroke="{{ stroke_color }}" fill="none"
     id="path8-3"
     d="m 163.71034,124.68685 c 0,0 0.33797,-15.57754 -11.97911,-16.34011 -12.3761,-0.76749 -13.1164,8.49192 -13.1164,8.49192 0,0 -0.38626,7.87296 -10.27855,7.87296 -9.8923,0 -10.6058,-7.80365 -10.6058,-7.80365 0,0 -2.46769,-8.86327 -13.84061,-8.54637 -12.510214,0.34165 -12.601408,16.42428 -12.601408,16.42428" />

</svg>
