<!DOCTYPE svg PUBLIC "-//W3C//DTD SVG 1.1//EN" "http://www.w3.org/Graphics/SVG/1.1/DTD/svg11.dtd">
<svg version="1.1" xmlns="http://www.w3.org/2000/svg" width="256" height="256">
<defs>
</defs>
<path d="M195 53.09C195 53.09 195.62 21.63 172.66 20.09C149.6 18.54 148.21 37.24 148.21 37.24C148.21 37.24 147.49 53.14 129.05 53.14C110.61 53.14 109.28 37.38 109.28 37.38C109.28 37.38 104.69 19.49 83.48 20.12C60.17 20.81 60 53.29 60 53.29"  stroke-width="5" stroke="{{ stroke_color }}" fill="none"></path>
<path d="M195 93.09C195 93.09 195.63 61.63 172.67 60.09C149.6 58.54 148.22 77.24 148.22 77.24C148.22 77.24 147.5 93.14 129.06 93.14C110.62 93.14 109.29 77.38 109.29 77.38C109.29 77.38 104.69 59.48 83.49 60.12C60.17 60.81 60 93.29 60 93.29"  stroke-width="5" stroke="{{ stroke_color }}" fill="none"></path>
<path d="M195 177.5C195 177.5 195 177.5 195 177.5C154.5 137 132 114.5 127.5 110C127.5 110 127.5 110 127.5 110C87 150.5 64.5 173 60 177.5C60 177.5 60 177.5 60 177.5C100.5 218 123 240.5 127.5 245C127.5 245 127.5 245 127.5 245C168 204.5 190.5 182 195 177.5Z" stroke-width="5" stroke="{{ color_secondary }}" fill="{{ color_primary }}"></path>
</svg>
